<?xml version="1.0" encoding="UTF-8" standalone="no"?>
<!-- Created with Inkscape (http://www.inkscape.org/) -->

<svg
   xmlns:dc="http://purl.org/dc/elements/1.1/"
   xmlns:cc="http://creativecommons.org/ns#"
   xmlns:rdf="http://www.w3.org/1999/02/22-rdf-syntax-ns#"
   xmlns:svg="http://www.w3.org/2000/svg"
   xmlns="http://www.w3.org/2000/svg"
   xmlns:sodipodi="http://sodipodi.sourceforge.net/DTD/sodipodi-0.dtd"
   xmlns:inkscape="http://www.inkscape.org/namespaces/inkscape"
   width="2048"
   height="2048"
   viewBox="0 0 2048 2048"
   id="svg2"
   version="1.1"
   inkscape:version="0.91 r13725"
   sodipodi:docname="OptionMenu.svg">
  <defs
     id="defs4" />
  <sodipodi:namedview
     id="base"
     pagecolor="#787878"
     bordercolor="#000000"
     borderopacity="1"
     inkscape:pageopacity="0"
     inkscape:pageshadow="2"
     inkscape:zoom="0.34441893"
     inkscape:cx="604.49323"
     inkscape:cy="1095.3454"
     inkscape:document-units="px"
     inkscape:current-layer="g3794"
     showgrid="false"
     inkscape:window-width="1330"
     inkscape:window-height="788"
     inkscape:window-x="25"
     inkscape:window-y="0"
     inkscape:window-maximized="0"
     units="px"
     borderlayer="true" />
  <metadata
     id="metadata7">
    <rdf:RDF>
      <cc:Work
         rdf:about="">
        <dc:format>image/svg+xml</dc:format>
        <dc:type
           rdf:resource="http://purl.org/dc/dcmitype/StillImage" />
        <dc:title />
      </cc:Work>
    </rdf:RDF>
  </metadata>
  <g
     inkscape:label="Layer 1"
     inkscape:groupmode="layer"
     id="layer1"
     transform="translate(0,995.63784)">
    <g
       inkscape:export-ydpi="90.000008"
       inkscape:export-xdpi="90.000008"
       inkscape:export-filename="/Users/tenma/dev/projects/qas-ui-design/CircleMenu/circlemenu-autoscroll/circlemenu-autoscroll@2x.png"
       transform="translate(905.72448,298.8709)"
       id="g3445">
      <g
         id="g3447"
         transform="matrix(0,0.26936912,-0.24757893,0,88.48107,232.98596)">
        <g
           id="g3449" />
      </g>
      <g
         id="g3405"
         inkscape:export-filename="/Users/tenma/dev/projects/qas-ui-design/OptionMenu/optionmenu-history/optionmenu-history@3x.png"
         inkscape:export-xdpi="67.5"
         inkscape:export-ydpi="67.5">
        <g
           style="fill:#ffffff"
           transform="matrix(0.35889879,0,0,0.39152324,-609.83475,-729.14755)"
           id="g3384">
          <path
             style="fill:#ffffff"
             inkscape:connector-curvature="0"
             class="st0"
             d="m 203.267,411.81 -2.632,-0.976 c -30.731,-11.589 -62.51,-23.564 -99.681,-23.564 -18.463,0 -36.426,2.922 -54.916,8.944 l -2.719,0.883 0,25.47 c 0,4.781 3.89,8.671 8.675,8.671 0.789,0 1.574,-0.11 2.355,-0.328 26.06,-7.359 45.526,-11.624 67.899,-11.624 31.368,0 66.997,8.53 119.132,28.52 l 5.35,2.054 0,-23.446 -8.784,-2.586 c -11.47,-3.347 -22.743,-7.558 -34.679,-12.018 z"
             id="path3386" />
          <path
             style="fill:#ffffff"
             inkscape:connector-curvature="0"
             class="st0"
             d="m 411.097,387.27 c -37.172,0 -68.95,11.975 -99.669,23.556 l -2.641,0.984 c -11.936,4.461 -23.208,8.671 -34.691,12.022 l -8.773,2.582 0,23.446 5.347,-2.054 c 52.139,-19.99 87.768,-28.52 119.136,-28.52 22.368,0 41.835,4.265 67.914,11.631 0.766,0.211 1.55,0.321 2.339,0.321 4.781,0 8.675,-3.89 8.675,-8.671 l 0,-25.47 -2.718,-0.883 c -18.49,-6.023 -36.453,-8.944 -54.919,-8.944 z"
             id="path3388" />
          <path
             style="fill:#ffffff"
             inkscape:connector-curvature="0"
             class="st0"
             d="M 490.998,82.755 C 453.514,69.081 416.69,62.14 381.553,62.14 316.131,62.14 273.354,86.079 256.027,98.086 238.697,86.08 195.921,62.14 130.501,62.14 95.364,62.14 58.54,69.081 21.055,82.755 l -21.001,7.663 0,225.956 L 0,393.53 l 0.054,-0.019 0,0.171 42.91,-15.658 c 3.965,-1.476 8.222,-2.87 13.034,-4.254 15.214,-4.464 29.919,-6.632 44.957,-6.632 34.148,0 64.582,11.402 94.392,22.576 12.436,4.652 25.29,9.468 38.418,13.386 l 22.263,6.566 22.271,-6.57 c 13.116,-3.914 25.974,-8.73 38.785,-13.53 29.434,-11.026 59.869,-22.427 94.014,-22.427 15.03,0 29.669,2.145 44.761,6.57 5.058,1.461 9.261,2.832 13.256,4.324 l 31.841,11.62 10.886,4.03 0,-0.058 0.16,0.058 0,-303.265 -21.004,-7.663 z m -253.68,227.831 -0.05,55.998 c -9.499,-3.058 -19.194,-6.698 -29.372,-10.514 -31.009,-11.628 -66.158,-24.81 -106.942,-24.81 -18.088,0 -36.528,2.691 -54.768,7.991 -2.586,0.726 -5.335,1.617 -8.097,2.523 -0.722,0.207 -1.41,0.418 -2.156,0.625 l 0,-226.854 c 32.641,-11.632 64.442,-17.522 94.568,-17.522 60.193,0 96.974,23.521 106.817,30.719 l 0,181.844 z m 238.799,-23.443 -0.05,55.287 c -3.523,-1.199 -6.929,-2.262 -10.171,-3.171 -18.271,-5.308 -36.706,-7.999 -54.798,-7.999 -40.781,0 -75.934,13.182 -106.942,24.81 -8.835,3.316 -17.272,6.421 -25.568,9.206 -1.281,0.406 -2.57,0.891 -3.851,1.274 l 0,-237.808 c 9.843,-7.198 46.62,-30.719 106.817,-30.719 30.122,0 61.927,5.89 94.564,17.522 l 0,171.598 z"
             id="path3390" />
        </g>
        <rect
           ry="0.096174292"
           y="-756.9176"
           x="-645.9563"
           height="256"
           width="256"
           id="rect3403"
           style="opacity:0;fill:#ffffff;fill-opacity:1;stroke:none;stroke-width:7;stroke-miterlimit:4;stroke-dasharray:none" />
      </g>
      <g
         inkscape:export-ydpi="67.5"
         inkscape:export-xdpi="67.5"
         inkscape:export-filename="/Users/tenma/dev/projects/qas-ui-design/OptionMenu/optionmenu-history/optionmenu-history@3x.png"
         id="g3483"
         transform="translate(-165.49613,551.65377)">
        <g
           id="g3499">
          <g
             id="g3506"
             transform="translate(92.910109,-31.93785)"
             inkscape:export-filename="/Users/tenma/dev/projects/qas-ui-design/OptionMenu/optionmenu-form/optionmenu-form@2x.png"
             inkscape:export-xdpi="45"
             inkscape:export-ydpi="45">
            <g
               style="opacity:1;fill:#ffffff"
               id="g3478"
               transform="matrix(0.32517691,0,0,0.36651559,-519.13447,-839.61551)">
              <g
                 id="g3465"
                 style="fill:#ffffff">
                <path
                   id="path3467"
                   style="fill:#ffffff"
                   d="m 393.184,304.326 0,-0.226 -36.238,36.234 0,85.422 c 0,14.106 -11.426,25.535 -25.461,25.535 l -162.09,0 c -9.328,0 -18.37,-0.945 -27.195,-2.75 l 0,-86.941 c 0,-9.043 -7.305,-16.348 -16.347,-16.348 l -86.939,0 c -1.809,-8.824 -2.75,-17.867 -2.75,-27.195 l 0,-231.817 c 0,-14.031 11.43,-25.461 25.531,-25.461 l 269.79,0 c 14.035,0 25.461,11.43 25.461,25.461 l 0,13.914 -0.113,9.84 0.113,-0.114 0,0.226 35.227,-35.222 c -5.352,-28.57 -30.598,-50.34 -60.688,-50.34 l -269.79,0 C 27.629,24.544 0,52.244 0,86.24 l 0,231.817 c 0,11.645 1.156,23.219 3.473,34.574 13.742,66.035 65.313,117.606 131.422,131.348 11.286,2.32 22.856,3.477 34.5,3.477 l 162.09,0 c 33.996,0 61.699,-27.634 61.699,-61.7 l 0,-71.187 0.114,-50.356 -0.114,0.113 z"
                   class="st0"
                   inkscape:connector-curvature="0" />
                <path
                   id="path3469"
                   style="fill:#ffffff"
                   d="M 508.138,130.592 450.076,72.533 c -4.825,-3.484 -11.418,-3.23 -15.57,0.918 l -214.56,214.531 -29.789,95.402 c -0.325,1.047 -0.321,2.074 -0.153,3.059 0.004,0.015 0.004,0.031 0.008,0.042 0.09,0.504 0.234,0.977 0.43,1.442 0.008,0.023 0.016,0.043 0.027,0.066 0.274,0.618 0.676,1.157 1.106,1.676 0.012,0.015 0.02,0.027 0.027,0.039 0.344,0.414 0.754,0.738 1.172,1.066 0.164,0.121 0.313,0.25 0.477,0.355 0.41,0.266 0.84,0.465 1.301,0.637 0.238,0.086 0.473,0.152 0.722,0.211 0.446,0.117 0.883,0.203 1.359,0.214 0.055,0.004 0.11,0.031 0.164,0.027 0.286,0.004 0.57,-0.09 0.852,-0.129 0.371,-0.05 0.73,0.004 1.102,-0.113 l 95.414,-29.79 214.558,-214.527 c 0.434,-0.434 0.836,-0.906 1.199,-1.398 3.481,-4.759 2.388,-11.497 -1.784,-15.669 z m -205.626,198.277 -4.546,-15.055 184.453,-184.426 9.887,9.89 -117.305,117.29 -49.329,49.297 -15.762,15.726 -7.398,7.278 z m -70.442,34.336 c -0.851,-2.367 -2.691,-5.195 -5.32,-7.821 -2.625,-2.625 -5.45,-4.465 -7.82,-5.316 l 16.468,-52.738 9.649,-9.649 22.961,6.922 0,21.324 0,0 0,0 0,0.16 21.485,0 6.023,19.958 -10.699,10.695 -52.747,16.465 z m 44.708,-55.887 0,-12.714 0,-2.566 184.157,-184.13 15.281,15.282 -184.153,184.128 -2.57,0 -12.715,0 z m -6.496,-21.183 -11.203,-3.379 -3.606,-1.113 -1.203,-0.387 -0.374,-0.172 51.808,-51.805 138.312,-138.285 10.719,10.714 -184.453,184.427 z"
                   class="st0"
                   inkscape:connector-curvature="0" />
              </g>
            </g>
            <rect
               style="opacity:0;fill:#ffffff;fill-opacity:1;stroke:none;stroke-width:7;stroke-miterlimit:4;stroke-dasharray:none"
               id="rect3493"
               width="256"
               height="256"
               x="-584.21326"
               y="-873.78754"
               ry="0.096174292" />
          </g>
          <g
             style="opacity:1;fill:#ffffff"
             id="g3688"
             transform="translate(737.12606,-904.87074)">
            <g
               id="g3677"
               style="fill:#ffffff">
              <path
                 id="path3679"
                 style="fill:#ffffff"
                 d="m 509.106,193.516 c -7.876,-24.237 -30.293,-40.522 -55.778,-40.522 l -108.134,0 L 311.777,50.152 C 303.905,25.912 281.488,9.626 255.999,9.626 c -25.485,0 -47.902,16.286 -55.778,40.526 l -33.414,102.842 -108.133,0 c -25.489,0 -47.902,16.286 -55.778,40.522 -7.88,24.24 0.68,50.59 21.301,65.574 l 87.484,63.56 -33.414,102.845 c -5.879,18.09 -2.91,37.203 8.147,52.425 11.127,15.315 28.966,24.454 47.714,24.454 12.316,0 24.206,-3.91 34.387,-11.312 l 87.484,-63.563 87.484,63.563 c 10.185,7.402 22.075,11.312 34.391,11.312 18.748,0 36.586,-9.146 47.71,-24.454 11.061,-15.222 14.03,-34.334 8.15,-52.429 l -33.412,-102.841 87.48,-63.56 c 20.62,-14.985 29.18,-41.334 21.304,-65.574 z M 131.019,467.551 c -1.737,-0.233 -3.433,-0.642 -5.06,-1.241 l 0,0 c -3.455,-1.27 -6.602,-3.312 -9.181,-5.928 0,0 -0.007,-0.011 -0.015,-0.019 -5.127,-5.218 -7.974,-12.722 -6.414,-20.962 0.012,-0.068 0.03,-0.136 0.042,-0.203 0.199,-0.997 0.451,-2 0.778,-3.015 l 35.786,-110.13 c 3.218,-9.91 -0.309,-20.767 -8.737,-26.887 L 44.534,231.103 C 25.685,217.404 35.372,187.592 58.673,187.592 l 115.797,0 c 10.421,0 19.654,-6.706 22.872,-16.617 L 233.127,60.84 c 3.598,-11.075 13.237,-16.616 22.872,-16.616 9.639,0 19.274,5.541 22.876,16.616 l 35.782,110.134 c 3.222,9.91 12.454,16.617 22.875,16.617 l 115.797,0 c 23.3,0 32.988,29.812 14.138,43.511 l -93.683,68.063 c -8.429,6.12 -11.958,16.977 -8.737,26.887 l 35.782,110.13 c 0.331,1.015 0.582,2.018 0.782,3.015 0.011,0.067 0.026,0.135 0.041,0.203 1.557,8.225 -1.278,15.718 -6.39,20.935 -0.019,0.015 -0.03,0.034 -0.05,0.053 -3.789,3.846 -8.819,6.429 -14.229,7.162 -0.206,0.026 -0.41,0.053 -0.62,0.075 -0.824,0.09 -1.654,0.15 -2.489,0.15 -4.703,0 -9.564,-1.436 -14.053,-4.703 l -93.683,-68.066 c -4.214,-3.061 -9.177,-4.59 -14.139,-4.59 -4.958,0 -9.921,1.53 -14.135,4.59 l -93.683,68.066 c -4.489,3.263 -9.35,4.703 -14.053,4.703 -0.838,0 -1.666,-0.06 -2.493,-0.15 -0.206,-0.021 -0.413,-0.048 -0.616,-0.074 z"
                 class="st0"
                 inkscape:connector-curvature="0" />
            </g>
          </g>
          <g
             id="g3786"
             inkscape:export-filename="/Users/tenma/dev/projects/qas-ui-design/OptionMenu/optionmenu-help/optionmenu-help@3x.png"
             inkscape:export-xdpi="67.5"
             inkscape:export-ydpi="67.5"
             transform="translate(-153.88237,-319.3785)">
            <g
               transform="matrix(0.35811116,0,0,0.34218773,125.7083,-1182.5763)"
               id="g3621"
               style="opacity:1;fill:#ffffff">
              <g
                 style="fill:#ffffff"
                 id="g3608">
                <path
                   inkscape:connector-curvature="0"
                   class="st0"
                   d="m 256.477,415.197 c -19.034,-1.817 -45.459,-0.282 -53.198,20.822 -3.696,10.088 -3.68,21.937 -3.364,32.528 0.294,9.759 0.95,20.882 6.798,29.114 0.785,1.102 1.816,1.934 2.734,2.886 0.406,0.418 0.774,0.875 1.203,1.266 1.086,0.996 2.246,1.89 3.477,2.715 0.363,0.242 0.738,0.461 1.11,0.687 14.034,8.618 35.521,7.587 50.054,4.727 23.514,-4.63 27.304,-25.25 27.304,-46.142 0,-11.537 -0.226,-25.457 -7.188,-35.251 -6.588,-9.266 -18.179,-12.329 -28.93,-13.352 z"
                   style="fill:#ffffff"
                   id="path3610" />
                <path
                   inkscape:connector-curvature="0"
                   class="st0"
                   d="M 374.5,63.893 C 312.917,-24.462 188.277,-5.941 136.481,28.978 c -9.29,6.258 -20.402,15.252 -22.694,27.351 -2.051,10.79 7.856,43.353 21.241,45.97 6.235,1.223 37.161,-12.724 42.9,-14.779 44.291,-15.862 103.459,-17.518 126.036,38.865 9.064,22.628 6.494,53.682 -7.013,74.65 -19.053,29.586 -66.93,30.445 -66.93,30.445 -9.286,0 -19.092,1.231 -24.808,9.412 -5.516,7.891 -5.27,18.986 -4.653,28.152 l 0,91.684 c 2.79,16.978 32.481,13.31 44.928,13.259 8.833,-0.039 41.982,1.066 41.982,-13.259 l 0,-76.952 c 32.891,-3.75 72.006,-21.26 90.298,-49.35 C 409.997,184.94 401.269,102.3 374.5,63.893 Z"
                   style="fill:#ffffff"
                   id="path3612" />
              </g>
            </g>
            <g
               id="g3774"
               transform="translate(673.59829,-349.18894)"
               inkscape:export-filename="/Users/tenma/dev/projects/qas-ui-design/OptionMenu/optionmenu-form/optionmenu-form@2x.png"
               inkscape:export-xdpi="45"
               inkscape:export-ydpi="45">
              <rect
                 style="opacity:0;fill:#ffffff;fill-opacity:1;stroke:none;stroke-width:7;stroke-miterlimit:4;stroke-dasharray:none"
                 id="rect3784"
                 width="256"
                 height="256"
                 x="-584.21326"
                 y="-873.78754"
                 ry="0.096174292" />
            </g>
          </g>
          <g
             transform="translate(90.006667,139.36516)"
             inkscape:export-ydpi="67.5"
             inkscape:export-xdpi="67.5"
             inkscape:export-filename="/Users/tenma/dev/projects/qas-ui-design/OptionMenu/optionmenu-help/optionmenu-help@3x.png"
             id="g3794">
            <g
               id="g3811"
               inkscape:export-filename="/Users/tenma/dev/projects/qas-ui-design/OptionMenu/optionmenu-setting/optionmenu-setting@3x.png"
               inkscape:export-xdpi="67.500015"
               inkscape:export-ydpi="67.500015">
              <g
                 transform="matrix(0.34662069,0,0,0.35353074,123.48857,-1045.0512)"
                 id="g3770"
                 style="opacity:1;fill:#ffffff">
                <g
                   style="fill:#ffffff"
                   id="g3759">
                  <path
                     inkscape:connector-curvature="0"
                     class="st0"
                     d="M 460.12,312.734 423.425,289.55 c -4.489,-2.835 -6.969,-7.906 -6.328,-12.906 0.874,-6.813 1.316,-13.758 1.316,-20.645 0,-6.883 -0.442,-13.828 -1.316,-20.637 -0.641,-5.008 1.839,-10.074 6.328,-12.91 l 36.695,-23.183 c 24.129,-15.242 31.855,-46.551 17.582,-71.27 -9.434,-16.34 -27.023,-26.488 -45.902,-26.488 -8.524,0 -17.035,2.102 -24.61,6.082 l -38.43,20.195 c -2.016,1.055 -4.266,1.614 -6.516,1.614 -2.902,0 -5.617,-0.898 -7.84,-2.598 -11.038,-8.422 -23.105,-15.394 -35.867,-20.726 -4.574,-1.91 -7.668,-6.578 -7.882,-11.883 L 308.929,50.863 C 307.796,22.344 284.546,0 256.003,0 227.461,0 204.21,22.34 203.073,50.863 l -1.73,43.332 c -0.207,5.309 -3.301,9.973 -7.882,11.883 -12.766,5.336 -24.832,12.308 -35.863,20.726 -2.227,1.699 -4.942,2.598 -7.844,2.598 -2.25,0 -4.5,-0.558 -6.508,-1.614 l -38.434,-20.195 c -7.574,-3.98 -16.09,-6.082 -24.613,-6.082 -18.879,0 -36.465,10.148 -45.902,26.488 -14.27,24.718 -6.547,56.023 17.586,71.27 l 36.695,23.183 c 4.489,2.836 6.969,7.898 6.324,12.918 -0.87,6.832 -1.316,13.774 -1.316,20.629 0,6.859 0.446,13.801 1.316,20.641 0.645,5.008 -1.835,10.074 -6.32,12.906 L 51.879,312.733 C 27.745,327.977 20.027,359.282 34.296,384 c 9.438,16.34 27.023,26.492 45.902,26.492 8.523,0 17.035,-2.102 24.613,-6.082 l 38.434,-20.195 c 2.008,-1.055 4.262,-1.614 6.508,-1.614 2.902,0 5.617,0.898 7.844,2.594 11.035,8.422 23.102,15.398 35.867,20.73 4.578,1.91 7.671,6.574 7.878,11.883 l 1.73,43.336 C 204.21,489.66 227.46,512 256.003,512 c 28.543,0 51.794,-22.34 52.926,-50.859 l 1.726,-43.328 c 0.214,-5.309 3.309,-9.977 7.879,-11.887 12.766,-5.332 24.835,-12.309 35.874,-20.73 2.223,-1.699 4.934,-2.594 7.836,-2.594 2.246,0 4.5,0.558 6.512,1.614 l 38.434,20.195 c 7.574,3.976 16.086,6.082 24.61,6.082 l 0.003,0 c 18.879,0 36.465,-10.152 45.898,-26.492 14.274,-24.719 6.552,-56.024 -17.581,-71.267 z m -255.261,-36.14 0,-41.187 c 0,-5.527 2.949,-10.633 7.738,-13.398 l 35.668,-20.594 c 4.785,-2.762 10.683,-2.762 15.472,0 l 35.668,20.594 c 4.786,2.766 7.734,7.871 7.734,13.398 l 0,41.187 c 0,5.527 -2.949,10.637 -7.734,13.398 l -35.668,20.594 c -4.789,2.766 -10.687,2.766 -15.472,0 l -35.668,-20.594 c -4.789,-2.762 -7.738,-7.871 -7.738,-13.398 z"
                     style="fill:#ffffff"
                     id="path3761" />
                </g>
              </g>
              <g
                 id="g3804"
                 transform="translate(668.43665,-208.75981)"
                 inkscape:export-filename="/Users/tenma/dev/projects/qas-ui-design/OptionMenu/optionmenu-form/optionmenu-form@2x.png"
                 inkscape:export-xdpi="45"
                 inkscape:export-ydpi="45">
                <rect
                   style="opacity:0;fill:#ffffff;fill-opacity:1;stroke:none;stroke-width:7;stroke-miterlimit:4;stroke-dasharray:none"
                   id="rect3806"
                   width="256"
                   height="256"
                   x="-584.21326"
                   y="-873.78754"
                   ry="0.096174292" />
              </g>
            </g>
          </g>
        </g>
      </g>
    </g>
  </g>
  <style
     id="style3382"
     type="text/css">
	.st0{fill:#374149;}
</style>
  <style
     id="style3463"
     type="text/css">
	.st0{fill:#374149;}
</style>
  <style
     id="style3606"
     type="text/css">
	.st0{fill:#374149;}
</style>
  <style
     id="style3675"
     type="text/css">
	.st0{fill:#374149;}
</style>
  <style
     id="style3757"
     type="text/css">
	.st0{fill:#374149;}
</style>
</svg>
